# xmcd CD database file
#
# Track frame offsets:
#	182
#	14777
#	31405
#	49482
#	65905
#	80387
#	94852
#	114437
#	131082
#	146705
#
# Disc length: 2151 seconds
#
# Revision: 3
# Processed by: cddbd v1.5.2PL0 Copyright (c) Steve Scherf et al.
# Submitted via: CDex 1.79
#
DISCID=9608650a
DTITLE=Eddie Rabbitt - The Ultimate Eddie Rabbitt
DYEAR=1993
DGENRE=Country
TTITLE0=Drivin' My Life Away
TTITLE1=Step By Step
TTITLE2=You And I
TTITLE3=On Second Thought
TTITLE4=The Best Year Of My Life
TTITLE5=I Love A Rainy Night
TTITLE6=Suspicions
TTITLE7=You Can't Run From Love
TTITLE8=Someone Could Lose A Heart Tonight
TTITLE9=Gone Too Far
EXTD=YEAR: 1993
EXTT0=
EXTT1=
EXTT2=
EXTT3=
EXTT4=
EXTT5=
EXTT6=
EXTT7=
EXTT8=
EXTT9=
PLAYORDER=
